REM MD5 d59194df8ad2dba0457288bbcf45377d
FILE "Shadow Master (Europe) (En,Fr,De,Es,It).bin" BINARY
  TRACK 01 MODE2/2352
    INDEX 01 00:00:00
  TRACK 02 AUDIO
    INDEX 00 53:11:13
    INDEX 01 53:13:13
  TRACK 03 AUDIO
    INDEX 00 57:33:60
    INDEX 01 57:35:60
  TRACK 04 AUDIO
    INDEX 00 61:57:18
    INDEX 01 61:59:18
  TRACK 05 AUDIO
    INDEX 00 66:23:64
    INDEX 01 66:25:64
REM LEADOUT 70:54:71
